<svg width="174" height="63" viewBox="0 0 174 63" fill="none" xmlns="http://www.w3.org/2000/svg">
<g clip-path="url(#clip0_10_2274)">
<mask id="mask0_10_2274" style="mask-type:luminance" maskUnits="userSpaceOnUse" x="0" y="0" width="174" height="63">
<path d="M174 0H0V63H174V0Z" fill="white"/>
</mask>
<g mask="url(#mask0_10_2274)">
<mask id="mask1_10_2274" style="mask-type:luminance" maskUnits="userSpaceOnUse" x="0" y="0" width="174" height="63">
<path d="M174 0H0V63H174V0Z" fill="white"/>
</mask>
<g mask="url(#mask1_10_2274)">
<path d="M53.5251 44.5812C54.8406 44.8292 56.0315 45.1667 57.2885 45.5689C58.3723 45.9205 59.0652 46.6936 59.5037 47.7126C61.0238 51.4825 59.9487 56.3705 56.3596 58.5778C55.6959 58.9973 54.9727 59.2205 54.1856 59.2971C51.7896 59.5332 49.3849 59.613 46.9803 59.6993C43.1627 59.8556 39.3495 59.6109 35.533 59.6141C29.9236 59.4858 24.233 59.1353 18.878 57.341C15.6029 56.2788 12.7067 54.5902 10.0606 52.4238C6.68258 49.8067 4.08088 46.3388 2.49257 42.3825C-0.392792 35.9805 -0.685118 28.6759 1.16736 21.9439C3.70735 12.6283 11.3219 5.30431 20.2324 1.8623C29.8045 -1.8935 40.653 0.228638 48.6692 6.46027C53.3042 10.1374 56.6238 15.3845 58.0594 21.1039C58.9591 24.9233 58.918 28.9024 58.3517 32.7649C57.6133 36.9887 55.5757 40.8545 53.524 44.5812M44.1144 29.4523C44.0527 27.0422 43.6402 24.52 42.3853 22.4249C41.1078 20.4267 39.6017 18.5052 37.471 17.361C33.6935 15.2885 29.104 14.8087 24.9952 16.1372C18.9581 17.9865 15.015 23.0341 14.7194 29.3056C14.623 32.9763 16.1334 36.6932 18.6755 39.3459C21.1354 41.9673 24.3282 43.6765 27.9617 43.7509C32.1236 43.8598 36.8106 43.4112 39.775 40.1654C42.5077 37.31 44.0981 33.4022 44.1133 29.4523" fill="white"/>
<path d="M76.2331 47.1206C73.8686 47.1206 71.7833 46.6796 69.9763 45.7964C68.1682 44.9133 66.752 43.5632 65.7267 41.7452C64.7014 39.9271 64.1882 37.6346 64.1882 34.8644V19.0249H70.758V34.033C70.758 36.4916 71.3318 38.3355 72.4784 39.5637C73.6249 40.793 75.2241 41.4076 77.2758 41.4076C78.8045 41.4076 80.1438 41.096 81.2904 40.4727C82.438 39.8495 83.3237 38.9146 83.9495 37.668C84.5753 36.4215 84.8882 34.8816 84.8882 33.0463V19.0249H91.4059V46.7561H85.2011V39.2262L86.2957 41.5629C85.357 43.3292 83.983 44.6965 82.176 45.6659C80.3679 46.6354 78.3866 47.1195 76.2321 47.1195" fill="white"/>
<path d="M103.243 14.4549C102.026 14.4549 101.027 14.0743 100.245 13.313C99.4633 12.5517 99.0714 11.6168 99.0714 10.5083C99.0714 9.46985 99.4623 8.56945 100.245 7.80815C101.027 7.04686 102.026 6.66513 103.243 6.66513C104.46 6.66513 105.459 7.02098 106.241 7.72944C107.023 8.44005 107.415 9.348 107.415 10.4554C107.415 11.5629 107.031 12.5064 106.268 13.286C105.503 14.0646 104.495 14.4549 103.244 14.4549M100.011 19.0249H106.477V46.7572H100.011V19.026V19.0249Z" fill="white"/>
<path d="M127.802 47.1206C124.882 47.1206 122.283 46.506 120.006 45.2767C117.729 44.0485 115.947 42.3684 114.662 40.2398C113.376 38.1101 112.733 35.6612 112.733 32.891C112.733 30.1208 113.376 27.6288 114.662 25.5164C115.947 23.405 117.729 21.7347 120.006 20.5054C122.283 19.2772 124.882 18.6615 127.802 18.6615C130.478 18.6615 132.86 19.2157 134.945 20.3232C137.03 21.4317 138.595 23.0416 139.638 25.153L134.684 28.0612C133.85 26.7812 132.833 25.8205 131.634 25.1789C130.435 24.5383 129.14 24.2181 127.75 24.2181C126.151 24.2181 124.707 24.5739 123.422 25.2824C122.136 25.9919 121.128 26.9958 120.398 28.2941C119.668 29.5924 119.304 31.1247 119.304 32.89C119.304 34.6552 119.668 36.1961 120.398 37.5117C121.128 38.8283 122.136 39.8408 123.422 40.5493C124.707 41.2588 126.151 41.6136 127.75 41.6136C129.14 41.6136 130.435 41.2944 131.634 40.6528C132.834 40.0123 133.851 39.0353 134.684 37.7187L139.638 40.6269C138.595 42.7038 137.03 44.3062 134.945 45.4309C132.86 46.5566 130.478 47.1184 127.802 47.1184" fill="white"/>
<path d="M145.113 8.2233H151.579V46.7572H145.113V8.2233ZM150.379 40.5773L150.535 32.4241L165.083 19.0259H172.904L160.547 31.3339L157.053 34.2422L150.379 40.5784V40.5773ZM166.126 46.7572L155.853 34.2411L159.973 29.0479L173.999 46.7572H166.126Z" fill="white"/>
<path d="M77.4219 61.7685H81.4928V62.8976H76.0826V55.7127H81.3488V56.8417H77.4219V61.7685ZM77.3191 58.6996H80.906V59.7984H77.3191V58.6996Z" fill="white"/>
<path d="M89.6855 62.8976V55.7127H90.7888L95.3134 61.2553H94.7666V55.7127H96.0864V62.8976H94.9831L90.4694 57.355H91.0151V62.8976H89.6855Z" fill="white"/>
<path d="M108.102 63C107.539 63 107.022 62.9094 106.551 62.7283C106.08 62.5471 105.669 62.2883 105.32 61.953C104.969 61.6176 104.698 61.2273 104.505 60.783C104.313 60.3387 104.216 59.8459 104.216 59.3046C104.216 58.7633 104.313 58.2716 104.505 57.8262C104.698 57.382 104.971 56.9916 105.325 56.6562C105.679 56.3209 106.092 56.0621 106.561 55.8809C107.032 55.6998 107.556 55.6092 108.133 55.6092C108.711 55.6092 109.285 55.7084 109.777 55.9068C110.269 56.1052 110.682 56.3964 111.019 56.7792L110.173 57.5998C109.892 57.3194 109.588 57.1124 109.262 56.9787C108.935 56.845 108.576 56.7781 108.184 56.7781C107.792 56.7781 107.447 56.8396 107.128 56.9625C106.808 57.0854 106.531 57.2601 106.298 57.4866C106.064 57.7119 105.883 57.9793 105.753 58.2877C105.622 58.5961 105.557 58.9347 105.557 59.3035C105.557 59.6723 105.622 60.0034 105.753 60.315C105.883 60.6266 106.066 60.8951 106.298 61.1205C106.532 61.3459 106.807 61.5206 107.123 61.6446C107.439 61.7675 107.789 61.829 108.175 61.829C108.532 61.829 108.877 61.7729 109.211 61.6597C109.544 61.5464 109.861 61.3567 110.164 61.0903L110.916 62.0856C110.545 62.3865 110.113 62.614 109.618 62.7682C109.123 62.9224 108.619 62.9989 108.103 62.9989M109.659 61.9109V59.2324H110.916V62.0856L109.659 61.9109Z" fill="white"/>
<path d="M119.387 62.8976V55.7127H120.727V61.7685H124.499V62.8976H119.387Z" fill="white"/>
<path d="M133.598 55.7127H132.259V62.8976H133.598V55.7127Z" fill="white"/>
<path d="M144.483 63C143.92 63 143.382 62.9191 142.869 62.7585C142.357 62.5978 141.947 62.3908 141.638 62.1374L142.102 61.1011C142.39 61.3275 142.747 61.5152 143.174 61.6661C143.599 61.8171 144.036 61.8915 144.483 61.8915C144.861 61.8915 145.166 61.8505 145.4 61.7686C145.634 61.6866 145.805 61.5755 145.915 61.4354C146.024 61.2952 146.08 61.1356 146.08 60.9577C146.08 60.7388 146.001 60.563 145.843 60.4293C145.684 60.2956 145.48 60.1899 145.23 60.1112C144.979 60.0325 144.7 59.9613 144.395 59.8955C144.09 59.8308 143.783 59.7499 143.478 59.654C143.173 59.558 142.892 59.4372 142.638 59.2895C142.383 59.1428 142.179 58.9455 142.025 58.6997C141.871 58.4538 141.793 58.1389 141.793 57.755C141.793 57.3712 141.898 57.0078 142.107 56.6821C142.317 56.3575 142.637 56.0966 143.065 55.9025C143.494 55.7073 144.039 55.6103 144.699 55.6103C145.132 55.6103 145.561 55.6653 145.988 55.7742C146.413 55.8841 146.784 56.0405 147.101 56.2465L146.678 57.2827C146.356 57.0908 146.022 56.9495 145.679 56.8568C145.336 56.7641 145.006 56.7177 144.689 56.7177C144.326 56.7177 144.026 56.7619 143.793 56.8514C143.559 56.9398 143.389 57.0584 143.283 57.2051C143.177 57.3518 143.124 57.5146 143.124 57.6925C143.124 57.9114 143.201 58.0872 143.356 58.2209C143.51 58.3546 143.713 58.4592 143.964 58.5336C144.215 58.6091 144.495 58.6802 144.804 58.7493C145.114 58.8183 145.419 58.8981 145.721 58.9908C146.023 59.0835 146.302 59.2032 146.556 59.3499C146.81 59.4976 147.015 59.6917 147.169 59.9354C147.324 60.178 147.401 60.4886 147.401 60.8639C147.401 61.2391 147.295 61.6014 147.087 61.926C146.876 62.2517 146.556 62.5115 146.123 62.7056C145.69 62.9008 145.144 62.9979 144.485 62.9979" fill="white"/>
<path d="M156.767 62.8976H155.427V55.7127H156.767V62.8976ZM160.601 59.8179H156.664V58.6781H160.601V59.8179ZM160.498 55.7127H161.827V62.8976H160.498V55.7127Z" fill="white"/>
</g>
</g>
</g>
<defs>
<clipPath id="clip0_10_2274">
<rect width="174" height="63" fill="white"/>
</clipPath>
</defs>
</svg>
